<svg id="Layer_1" viewBox="0 0 24 24" xmlns="http://www.w3.org/2000/svg" data-name="Layer 1"><path d="m22.324 2.089c-.086-.361-.365-.645-.725-.736-.057-.015-1.398-.353-3.1-.353-1.645 0-3.295.357-3.364.373-.382.083-.68.381-.763.763-.016.069-.373 1.719-.373 3.364 0 .931.114 1.853.216 2.5h-11.108c.191-3.569.573-5.799.578-5.828.095-.544-.269-1.061-.813-1.157-.538-.092-1.061.269-1.157.812-.029.167-.715 4.155-.715 10.173s.686 10.006.715 10.173c.093.547.626.908 1.157.812.544-.096.908-.613.812-1.158-.002-.01-.052-.303-.123-.827h16.875c-.071.524-.121.818-.123.828-.095.544.27 1.061.813 1.157.531.095 1.064-.266 1.157-.812.029-.167.715-4.155.715-10.173 0-5.223-.349-8.545-.676-9.911zm-6.324 3.411c0-.847.114-1.721.208-2.292.571-.094 1.445-.208 2.292-.208.806 0 1.523.091 2 .17.17 1.026.327 2.688.418 4.83h-4.674c-.097-.549-.244-1.536-.244-2.5zm-12.966 8.737c.555-.097 1.522-.238 2.466-.238.847 0 1.721.114 2.292.208.093.57.208 1.441.208 2.292 0 .964-.147 1.951-.244 2.5h-4.424c-.122-1.249-.241-2.866-.297-4.762zm11.722 4.762h-4.512c-.097-.547-.244-1.531-.244-2.5 0-.847.115-1.721.208-2.292.572-.094 1.445-.208 2.292-.208s1.721.114 2.292.208c.094.571.208 1.445.208 2.292 0 .964-.147 1.951-.244 2.5zm2.028 0c.102-.647.216-1.569.216-2.5 0-1.645-.357-3.295-.373-3.364-.083-.382-.381-.68-.763-.763-.069-.016-1.719-.373-3.364-.373-1.805.023-3.247.328-3.5.424-.25-.095-1.697-.401-3.5-.424-.93 0-1.852.114-2.498.216-.005-.753.008-1.515.026-2.216h17.951c.013.64.022 1.3.022 2 0 2.869-.164 5.281-.332 7h-3.884z"/></svg>