<?xml version="1.0" encoding="UTF-8" standalone="no"?><!DOCTYPE svg PUBLIC "-//W3C//DTD SVG 1.1//EN" "http://www.w3.org/Graphics/SVG/1.1/DTD/svg11.dtd"><svg width="100%" height="100%" viewBox="0 0 334 308" version="1.1" xmlns="http://www.w3.org/2000/svg" xmlns:xlink="http://www.w3.org/1999/xlink" xml:space="preserve" xmlns:serif="http://www.serif.com/" style="fill-rule:evenodd;clip-rule:evenodd;stroke-linejoin:round;stroke-miterlimit:2;"><path fill="#000" d="M279.68,271.519l9.309,-0.006l-0.079,35.517c-3.082,0.098 -6.136,0.142 -9.221,0.054c-0.129,-11.855 -0.133,-23.71 -0.009,-35.565Zm-155.624,-0.038c3.041,-0.031 6.088,0.051 9.128,0.088l-0.005,27.352l11.675,-0.047c-0.222,2.75 -0.379,5.505 -0.471,8.263c-3.505,0.836 -15.971,-0.013 -20.294,-0.101c-0.037,-11.834 -0.336,-23.723 -0.033,-35.555Zm174.48,0.067c7.499,-0.258 15.093,0.022 22.599,0.072l-0.032,7.283l-13.814,-0l0,6.39l11.339,0.031l-0.004,7.478c-3.635,-0.004 -7.502,-0.324 -11.103,0.15c-0.32,1.072 -0.113,2.555 -0.097,3.686c-0.028,0.939 -0.1,1.658 0.361,2.516c3.774,0.773 9.291,0.201 13.221,0.195l-0.022,7.839c-7.438,-0.003 -14.876,-0.048 -22.313,-0.135c0.27,-11.81 0.028,-23.695 -0.135,-35.505Zm-89.625,-0.095c7.525,-0.065 15.05,-0.012 22.573,0.16l-0.17,7.389l-13.61,-0.066l0.01,6.218l11.653,0.107l-0.023,7.408c-3.726,-0.019 -7.797,-0.333 -11.476,0.151c-0.465,0.989 -0.252,2.422 -0.23,3.503l0.06,2.896c4.599,-0.079 9.198,-0.058 13.795,0.063c-0.017,2.621 -0.063,5.241 -0.138,7.861c-7.348,0.21 -14.888,0.192 -22.234,-0.135l-0.21,-35.555Zm-153.96,-0.009l22.806,-0.013l0.081,7.817l-13.516,0.056l0.018,5.813c3.649,0.175 7.349,0.094 11.005,0.116l-0.099,7.194l-11.04,0.016l-0.053,3.776c-0.008,0.889 -0.159,2.134 0.453,2.781c4.256,0.368 8.71,0.05 12.988,-0.028l-0.065,8.231c-7.509,0.043 -15.017,0.043 -22.525,-0l-0.053,-35.759Zm43.331,0.009l4.214,-0.098c5.295,11.845 10.336,23.868 16.003,35.537c-3.454,0.364 -6.981,0.326 -10.446,0.172l-1.385,-4.605l-3.275,0.069l-9.875,0.019c-0.527,1.589 -1.21,3.132 -1.845,4.681c-3.118,0.047 -6.242,-0.016 -9.361,-0.038c2.568,-6.607 5.922,-13.001 8.893,-19.444c2.481,-5.379 4.648,-10.889 7.077,-16.293Zm1.735,15.273c-1.279,2.934 -2.598,5.851 -3.955,8.75l4.618,-0.003l3.335,-0.088c-0.953,-2.312 -2.269,-6.978 -3.998,-8.659Zm85.594,-15.521c5.348,-0.389 10.183,0.402 14.609,3.576c-1.693,2.387 -3.446,4.725 -5.381,6.921c-2.086,-1.188 -4.056,-2.036 -6.516,-2.005c-2.73,0.03 -5.334,1.169 -7.208,3.155c-1.859,1.947 -2.854,4.566 -2.758,7.257c0.088,2.52 1.183,4.903 3.038,6.61c2.73,2.495 5.929,2.724 9.422,2.636c0.072,-1.583 0.006,-3.182 -0.012,-4.769c-2.262,-0.103 -4.506,-0.207 -6.752,-0.481l0.034,-6.801l9.611,-0.038c2.03,-0.032 4.059,0.05 6.089,0.107c0.019,5.931 0.251,11.97 -0.198,17.879c-1.803,0.955 -3.736,1.578 -5.734,1.98c-5.73,1.149 -11.907,0.527 -16.83,-2.796c-3.999,-2.705 -6.753,-6.902 -7.644,-11.647c-0.864,-4.719 0.126,-9.994 2.934,-13.915c3.268,-4.565 7.889,-6.777 13.296,-7.669Zm75.402,0.233l8.828,-0.047l-0.037,35.668c-2.171,0.056 -4.349,-0.091 -6.516,-0.192c-4.949,-6.01 -9.561,-12.294 -14.418,-18.376c0.011,6.212 0.061,12.423 0.151,18.634c-2.9,0.097 -5.815,0.012 -8.715,-0.013l-0.16,-35.495c2.086,-0.035 4.181,0.034 6.271,0.059c5.209,6.096 10.086,12.469 14.609,19.09c-0.076,-6.441 -0.016,-12.888 -0.013,-19.328Zm-247.996,0.09c1.364,-0.059 2.725,0.028 4.088,0.088c3.232,6.705 6.583,13.352 10.051,19.938c3.43,-6.645 6.638,-13.431 10.287,-19.96c1.397,-0.1 2.811,-0.034 4.211,-0.012c1.005,11.866 3.239,23.811 4.964,35.595c-3.029,0.079 -6.432,0.484 -9.334,-0.464c-0.736,-0.701 -0.65,-0.934 -0.791,-1.911c-0.206,-4.285 -0.87,-8.618 -1.438,-12.868l-5.577,12.435l-4.986,0.173c-2.331,-4.154 -4.231,-8.59 -6.223,-12.916c-0.287,5.168 -1.059,10.308 -1.381,15.476c-3.139,0.173 -6.376,0.239 -9.497,-0.163c0.275,-3.409 4.7,-34.506 5.626,-35.411Zm288.437,-72.574c5.347,-0.305 9.749,0.286 14.593,2.636c-4.024,-0.101 -7.876,-0.905 -11.929,-0.302c-12.74,1.901 -27.041,10.176 -38.87,15.404c-6.478,2.862 -13.132,5.178 -19.727,7.741c0.916,1.095 1.813,2.207 2.69,3.334c-0.095,1.527 -0.358,3.132 -0.77,4.609c-1.31,4.709 -4.235,9.145 -8.634,11.476c-4.832,2.564 -10.176,2.115 -15.193,0.5c-8.052,-3.164 -13.861,-10.343 -19.617,-16.519c3.654,-0.082 7.304,-0.032 10.949,-0.371c19.171,-1.784 37.239,-8.766 54.588,-16.739c10.182,-4.682 20.716,-10.195 31.92,-11.769l-0,-0Zm-24.979,-198.9l0.304,-0.023c3.447,-0.232 6.482,0.84 9.042,3.184c5.693,5.206 7.475,13.994 7.911,21.351c0.71,11.918 -1.457,25.683 -9.733,34.844c-6.164,6.827 -13.726,7.698 -22.404,8.151c-2.265,7.021 -5.447,13.744 -7.515,20.818c2.002,0.808 7.167,2.333 8.197,4.177c-1.068,1.517 -4.983,2.916 -6.883,5.222c-4.389,5.328 -5.857,11.962 -11.329,16.712c-6.884,5.974 -15.477,6.593 -23.881,8.825c-3.497,0.929 -6.921,2.313 -10.236,3.75c-3.185,1.382 -6.016,2.769 -8.278,5.49c-0.01,0.333 -0.016,0.666 -0.019,0.999c-0.038,4.941 2.262,5.671 5.25,8.915c2.215,2.407 1.825,5.234 1.637,8.231c-5.944,-0.559 -12.065,-2.246 -17.899,-3.528c-11.667,-2.501 -23.269,-5.294 -34.796,-8.375c0.566,-2.248 1.357,-4.298 2.402,-6.361c2.648,-0.435 6.004,-0.927 8.124,-2.697c0.965,-0.806 1.254,-1.578 1.392,-2.802c-0.76,-2.437 -8.033,-7.521 -10.188,-9.603c-2.069,-1.997 -3.87,-3.986 -5.589,-6.291c-2.393,-3.17 -4.416,-6.603 -6.03,-10.233c-3.761,-8.498 -5.942,-18.128 -12.522,-25.072c-3.249,-3.429 -7.47,-5.857 -11.142,-8.805c2.143,-2.172 4.778,-3.515 7.437,-4.945c5.369,4.363 10.539,8.673 15.392,13.616c2.91,3.266 4.924,6.712 7.415,10.243c1.091,1.546 2.435,3.109 4.428,3.371c1.522,0.2 2.784,-0.46 3.941,-1.368c2.972,-2.331 6.933,-7.505 7.037,-11.389c0.079,-2.97 -4.138,-1.948 -5.756,-3.73c-0.641,-0.709 -1.162,-1.791 -1.027,-2.759c0.066,-0.482 0.377,-0.78 0.811,-0.998c2.365,-1.185 6.283,0.538 8.492,1.446c10.041,-9.336 12.846,-11.466 26.72,-12.914c-1.225,-1.906 -3.591,-4.797 -3.792,-7.048c-0.1,-1.113 0.17,-2.116 0.962,-2.926c1.482,-1.524 4.128,-1.923 6.148,-1.896c3.066,0.04 6.795,1.196 8.875,3.557c0.827,0.936 1.279,2.075 1.147,3.33c-0.298,2.789 -4.599,4.894 -6.651,6.533c9.768,5.744 16.035,12.734 19.454,23.648l0.264,0.169c0.75,0.479 2.356,1.281 2.544,2.148c-0.801,0.259 -1.643,0.016 -2.438,-0.189c-3.54,-0.914 -7.065,-2.283 -10.597,-3.307c-6.798,-1.971 -13.748,-3.505 -20.635,-5.14c-5.777,-1.371 -11.86,-3.063 -17.782,-3.668c-1.175,-0.121 -2.903,-0.35 -3.855,0.424c1.012,1.345 2.957,2.031 4.512,2.564c4.342,1.488 9.039,2.163 13.497,3.241c7.725,1.866 15.401,3.962 23.12,5.857c3.361,0.825 7.549,1.373 10.628,2.928c-0.119,0.711 -0.179,1.305 -0.122,2.026c1.583,0.972 7.54,-1.093 9.588,-1.399c5.046,-0.752 10.104,-0.751 15.187,-0.582c2.263,-7.219 5.332,-14.265 8.153,-21.282c-4.065,-4.935 -7.42,-8.885 -8.853,-15.302c-2.513,-11.229 2.017,-23.681 8.014,-33.068c5.002,-7.828 12.533,-15.964 21.927,-18.07Zm-40.951,95.219c-2.975,0.525 -8.096,0.754 -9.909,3.414c-1.577,2.312 -1.326,5.367 -0.735,7.967c0.389,1.709 1.303,4.289 3.075,5.049c1.389,0.595 3.918,-0.034 5.373,-0.289c3.858,-1.156 6.723,-3.905 8.589,-7.425c0.965,-1.821 2.115,-4.422 1.42,-6.518c-0.32,-0.968 -1.021,-1.626 -1.941,-2.021c-1.599,-0.687 -4.173,-0.466 -5.872,-0.177Zm-64.013,33.533c0.169,1.373 1.476,2.351 2.519,3.14c5.486,4.158 14.32,5.822 21.047,4.695c0.927,-0.155 1.813,-0.41 2.708,-0.698l0.33,-0.853c-1.323,-1.122 -5.561,-0.285 -7.371,-0.433c-4.624,-0.381 -8.928,-1.746 -13.173,-3.538c-1.935,-0.817 -3.999,-1.922 -6.06,-2.313Zm110.445,-120.792c5.401,10.986 4.898,23.657 1.062,35.081c-2.727,8.117 -7.703,14.282 -15.476,18.067c-1.081,0.518 -2.171,1.016 -3.271,1.494c1.471,-0.122 2.969,-0.183 4.414,-0.5c6.472,-1.581 11.823,-4.992 15.301,-10.787c5.602,-9.333 6.733,-22.744 3.993,-33.158c-0.943,-3.581 -2.702,-8.24 -6.023,-10.197Zm-45.816,90.423c0.603,-0.1 1.087,-0.083 1.694,-0.055l0.383,0.585c0.038,2.613 -1.351,5.499 -2.221,7.958c-1.766,0.528 -3.588,0.895 -5.379,1.313c-0.707,0.086 -1.059,0.121 -1.709,-0.189c-1.426,-2.187 -0.861,-5.749 -0.798,-8.301c2.617,-0.718 5.344,-0.971 8.03,-1.311Zm-213.944,-52.995c3.108,0.937 6.136,2.279 9.09,3.619c16.903,7.668 32.367,17.959 47,29.305c7.814,6.059 17.981,13.236 21.489,22.846c2.885,7.903 0.834,15.07 -2.583,22.41c8.902,5.858 17.327,12.757 25.844,19.173l46.493,34.874c11.194,-5.366 22.331,-10.92 33.682,-15.947c15.206,-6.73 30.739,-12.976 45.515,-20.629c10.284,-5.279 20.338,-10.996 30.132,-17.136c4.773,-2.987 9.306,-6.562 14.195,-9.321l0.358,-0.199c-2.932,8.749 -7.908,16.932 -13.617,24.153c-16.258,20.571 -41.147,39.544 -66.215,47.597c-7.207,2.315 -14.499,3.569 -21.998,4.451c8.159,4.075 16.205,8.373 24.351,12.47c5.64,2.837 11.439,5.445 16.972,8.483c-24.204,9.94 -45.204,6.71 -69.942,1.432c-5.625,-1.2 -14.797,-3.773 -19.988,-4.093c-0.704,-0.044 -1.166,0.484 -1.676,0.901l0.092,0.371c7.348,3.453 22.474,7.185 30.413,8.828c15.602,3.227 32.495,4.543 48.213,1.348c7.148,-1.454 14.135,-3.877 20.802,-6.821c11.92,-5.265 23.403,-11.546 35.162,-17.172c6.601,-3.161 13.513,-6.488 20.579,-8.467c5.834,-1.634 12.887,-2.577 18.888,-1.395c5.712,1.128 10.852,4.32 14.059,9.227c3.538,5.416 4.76,12.812 3.34,19.105c-1.034,4.584 -3.437,8.721 -7.54,11.203c-4.006,2.426 -9.319,3.114 -13.852,1.964c-3.353,-0.855 -6.724,-2.997 -8.392,-6.108c-0.961,-1.8 -1.282,-3.93 -0.609,-5.884c1.021,-2.969 3.333,-4.248 5.938,-5.605c-0.981,1.216 -2.498,2.476 -3.193,3.839c-0.578,1.128 -0.603,2.602 -0.207,3.789c0.701,2.099 2.639,3.576 4.581,4.458c2.824,1.285 6.007,1.521 8.904,0.337c3.144,-1.285 5.488,-4.025 6.72,-7.142c1.718,-4.345 1.373,-9.01 -0.61,-13.211c-2.796,-5.919 -8.511,-8.552 -14.747,-8.903c-10.456,-0.591 -20.475,4.062 -29.771,8.31c-13.849,6.333 -27.707,13.415 -42.09,18.438c-7.164,2.501 -14.587,4.578 -22.121,5.561c-25.345,3.299 -51.588,-4.012 -75.207,-12.463c-0.315,-0.817 -0.509,-1.605 -1.258,-2.127c-2.676,0.757 -4.942,2.878 -7.039,4.631c-4.502,3.729 -8.664,7.849 -12.438,12.312c-6.439,7.55 -10.969,16.187 -20.879,19.636c-4.979,1.735 -10.969,2.002 -15.753,-0.468c-3.843,-2.029 -6.726,-5.505 -8.01,-9.657c-1.465,-4.817 -0.592,-10.145 1.695,-14.556c6.628,-12.784 25.566,-17.861 38.431,-21.936c-25.391,-8.492 -58.162,-16.921 -85.024,-12.121c-5.896,1.223 -10.812,3.726 -15.35,7.632c2.18,-2.938 4.587,-5.055 7.798,-6.824c19.761,-10.899 58.257,-2.611 79.077,2.9c6.687,1.768 13.241,4.015 19.884,5.938c1.479,-0.651 3.027,-1.179 4.54,-1.747c-24.261,-8.58 -58.698,-17.27 -84.415,-16.658c-10.522,0.252 -22.591,2.269 -30.166,10.289c-2.776,2.941 -4.761,6.642 -4.553,10.789c0.2,3.99 2.436,8.502 5.517,11.072c2.848,2.378 6.721,3.613 10.419,3.207c3.257,-0.355 6.455,-2.07 8.428,-4.709c1.047,-1.401 1.635,-3.07 1.362,-4.826c-0.267,-1.707 -1.233,-3.228 -2.665,-4.194c-2.652,-1.753 -5.333,-0.726 -8.164,-0.119l-0.054,-0.205c0.596,-0.326 1.198,-0.642 1.805,-0.949c2.843,-1.423 5.209,-1.19 8.137,-0.194l0.42,0.144c0.599,0.613 1.175,1.317 1.626,2.045c1.589,2.57 2.144,5.731 1.27,8.643c-1.048,3.488 -3.989,6.586 -7.136,8.301c-4.058,2.212 -9.064,2.378 -13.43,1.049c-5.256,-1.602 -9.557,-5.026 -12.112,-9.903c-2.659,-5.076 -3.417,-10.964 -1.677,-16.456c2.247,-7.094 8.19,-12.611 14.703,-15.881c30.046,-15.075 88.668,4.634 118.868,14.628c8.17,-2.979 16.004,-7.189 23.907,-10.811c-7.232,-6.736 -15.235,-12.599 -22.89,-18.829l-42.094,-34.519c-3.006,3.684 -7.104,6.675 -11.491,8.501c-5.274,2.195 -12.046,2.916 -17.399,0.569c-3.784,-1.659 -7.149,-4.89 -10.281,-7.536c-17.677,-14.931 -32.685,-33.007 -45.262,-52.362c-1.695,-2.609 -4.363,-5.883 -5.373,-8.786c-0.449,-1.291 -0.651,-3.274 0.073,-4.483c0.307,-0.513 0.536,-0.391 1.079,-0.484c0.721,0.243 1.233,0.614 1.756,1.157c2.014,2.093 3.675,4.761 5.516,7.021c2.614,3.209 5.549,6.217 8.41,9.206c10.668,11.021 21.74,21.646 33.193,31.851c3.22,2.856 6.595,6.376 10.259,8.626c0.81,0.497 1.618,0.732 2.568,0.718c1.088,-0.016 2.033,-0.494 2.744,-1.314c0.696,-0.803 0.984,-1.841 0.873,-2.893c-0.176,-1.679 -1.269,-2.89 -2.42,-4.028c-2.336,-2.312 -5.055,-4.333 -7.569,-6.453c-4.897,-4.121 -9.772,-8.268 -14.625,-12.44c-12.912,-11.203 -25.432,-22.809 -38.294,-34.055c0.83,-1.171 1.774,-2.246 2.702,-3.339c4.449,3.667 8.589,7.904 12.967,11.697c11.303,9.79 22.756,19.432 33.927,29.371c2.97,2.641 13.37,12.961 15.914,14.2c0.763,0.372 1.915,0.231 2.686,-0.089c0.971,-0.405 1.785,-1.397 2.162,-2.36c0.384,-0.983 0.427,-2.099 -0.173,-3.012c-2.48,-3.777 -10.377,-9.416 -14.145,-12.579l-40.165,-33.524c-2.243,-1.904 -4.868,-3.429 -7.042,-5.351c-0.589,-0.522 -1.351,-1.252 -1.554,-2.044c-0.187,-0.728 0.005,-1.304 0.441,-1.885c0.49,-0.654 1.246,-1.046 2.033,-1.164c0.893,0.23 1.176,0.674 1.774,1.311c1.862,1.981 4.306,3.701 6.402,5.443c5.538,4.604 11.186,9.045 16.789,13.567c10.724,8.656 21.116,17.807 31.426,26.948c1.766,1.566 5.641,6.001 8.041,5.934c1.129,-0.031 2.364,-0.705 3.083,-1.565c0.655,-0.783 0.796,-1.663 0.625,-2.644c-0.225,-1.296 -1.191,-2.538 -2.052,-3.482c-4.009,-4.397 -9.312,-8.195 -13.915,-11.99c-9.336,-7.696 -18.536,-15.39 -28.366,-22.469c-6.902,-4.972 -13.933,-9.562 -21.096,-14.134c0.764,-1.165 1.598,-2.158 2.545,-3.178l0,0Zm147.125,150.948c-7.933,2.605 -15.193,6.064 -22.434,10.192c7.122,0.424 14.224,2.306 21.236,3.591c6.463,1.153 12.96,2.104 19.483,2.853c-2.671,-2.847 -14.603,-16.658 -16.938,-16.711c-0.474,-0.009 -0.882,0.013 -1.347,0.075Z" style="fill-rule:nonzero;"/></svg>